<?xml version="1.0" standalone="no"?>
<!DOCTYPE svg PUBLIC "-//W3C//DTD SVG 20010904//EN"
 "http://www.w3.org/TR/2001/REC-SVG-20010904/DTD/svg10.dtd">
<svg version="1.0" xmlns="http://www.w3.org/2000/svg"
 width="512.000000pt" height="512.000000pt" viewBox="0 0 512.000000 512.000000"
 preserveAspectRatio="xMidYMid meet">

<g transform="translate(0.000000,512.000000) scale(0.100000,-0.100000)"
fill="#000000" stroke="none">
<path d="M1340 5111 c-52 -10 -97 -40 -128 -85 -27 -39 -27 -40 -30 -245 -2
-131 0 -219 7 -243 15 -50 57 -97 106 -119 38 -17 83 -19 755 -19 674 0 717 1
755 19 48 22 79 54 100 103 12 30 15 80 15 241 0 194 -1 206 -23 248 -16 29
-40 54 -72 74 l-48 30 -701 2 c-386 0 -717 -2 -736 -6z"/>
<path d="M419 4920 c-127 -16 -253 -109 -312 -229 l-32 -66 0 -2100 0 -2100
31 -65 c40 -82 87 -136 155 -177 110 -66 46 -63 1406 -63 l1233 0 0 175 0 175
-1224 0 c-1333 0 -1247 -4 -1261 53 -3 12 -4 921 -3 2020 l3 1999 24 19 c21
17 41 19 242 19 l219 0 0 175 0 175 -212 -1 c-117 -1 -238 -5 -269 -9z"/>
<path d="M3267 4923 c-4 -3 -7 -82 -7 -175 l0 -168 194 0 195 0 20 -26 c21
-27 21 -29 21 -1130 l0 -1104 170 0 170 0 -2 1153 -3 1152 -32 66 c-63 127
-180 212 -321 230 -79 10 -396 12 -405 2z"/>
<path d="M1385 3630 c-136 -148 -251 -270 -254 -270 -4 0 -52 49 -107 110 -54
60 -102 109 -106 107 -13 -4 -248 -221 -248 -228 0 -18 352 -388 384 -403 42
-20 103 -21 149 -1 36 15 86 66 471 485 l216 235 -49 45 c-27 25 -85 78 -129
118 l-80 72 -247 -270z"/>
<path d="M2110 3310 l0 -170 630 0 630 0 0 170 0 170 -630 0 -630 0 0 -170z"/>
<path d="M1380 2560 l-245 -269 -55 57 c-30 32 -79 83 -108 115 l-54 57 -121
-112 c-67 -62 -122 -118 -122 -124 0 -20 326 -368 368 -393 49 -30 117 -32
171 -4 23 12 154 147 355 367 l319 348 -120 111 c-66 62 -125 113 -132 114 -6
2 -121 -118 -256 -267z"/>
<path d="M2110 2255 l0 -175 630 0 630 0 0 175 0 175 -630 0 -630 0 0 -175z"/>
<path d="M3871 1965 c-384 -87 -667 -358 -766 -733 -39 -144 -36 -350 6 -501
109 -390 464 -688 860 -720 490 -39 920 265 1047 738 35 134 37 343 4 475 -37
148 -117 302 -221 424 -108 128 -315 257 -486 303 -105 28 -348 36 -444 14z
m369 -638 l0 -242 160 -160 c88 -88 160 -162 160 -166 0 -12 -242 -244 -254
-244 -8 0 -102 91 -209 202 -152 156 -198 210 -206 240 -7 23 -11 153 -11 326
l0 287 180 0 180 0 0 -243z"/>
<path d="M1380 1510 c-135 -148 -247 -269 -250 -269 -3 0 -49 50 -104 110 -54
60 -103 109 -107 109 -14 0 -250 -221 -247 -231 8 -21 343 -377 371 -394 38
-23 118 -26 164 -6 21 9 148 138 358 367 l324 353 -124 115 c-68 64 -128 116
-132 115 -4 0 -118 -121 -253 -269z"/>
<path d="M2110 1205 l0 -175 280 0 280 0 0 175 0 175 -280 0 -280 0 0 -175z"/>
</g>
</svg>
